<svg width="23" height="20" viewBox="0 0 23 20" fill="none" xmlns="http://www.w3.org/2000/svg">
<path fill-rule="evenodd" clip-rule="evenodd" d="M22.1366 19.7408C21.9976 19.8278 21.2185 19.7624 20.9916 19.7624C19.9951 19.7696 18.9983 19.7768 18.0019 19.784C17.8094 19.8271 17.521 19.7567 17.3021 19.8056C17.0475 19.8626 16.6823 19.8235 16.3904 19.8272C15.9795 19.8324 15.4986 19.8488 15.0546 19.8488C14.7577 19.8488 14.4608 19.8488 14.164 19.8488C13.8612 19.906 13.2167 19.7881 12.8494 19.8704C12.6049 19.9252 12.2148 19.9124 11.9588 19.9136C11.6762 19.9136 11.3934 19.9136 11.1107 19.9136C10.9374 19.947 10.5244 19.8768 10.2625 19.9352C9.98383 19.9974 9.5828 19.9568 9.26598 19.9568C8.36139 19.9712 7.45651 19.9856 6.55192 20C6.54486 19.9856 6.53777 19.9712 6.53071 19.9568C6.56816 19.936 6.56634 19.9297 6.61553 19.9136C6.8028 19.7746 7.58455 19.8092 7.88774 19.7408C8.53795 19.5943 9.27792 19.6184 9.90209 19.46C10.0858 19.4529 10.2696 19.4456 10.4534 19.4384C11.515 19.192 12.7663 19.2414 13.8248 18.9849C13.9873 18.9777 14.1499 18.9705 14.3124 18.9633C14.49 18.9215 14.7298 18.8994 14.9273 18.8553C15.0263 18.8553 15.1253 18.8553 15.2242 18.8553C15.7412 18.7305 16.4036 18.726 16.9205 18.5961C17.076 18.5889 17.2315 18.5817 17.387 18.5745C17.5972 18.5258 17.8794 18.5178 18.1079 18.4665C18.1856 18.4665 18.2634 18.4665 18.3411 18.4665C18.722 18.351 19.3356 18.2952 19.783 18.2721C19.7482 17.99 19.5157 17.7392 19.3801 17.5378C19.373 17.5018 19.366 17.4658 19.3589 17.4298C19.3129 17.348 19.2081 17.2579 19.1681 17.1706C19.1681 17.1418 19.1681 17.113 19.1681 17.0842C19.1469 17.077 19.1257 17.0698 19.1045 17.0626C19.0903 17.0122 19.0762 16.9618 19.062 16.9114C19.015 16.8473 18.9262 16.7701 18.8924 16.6955C18.8924 16.6667 18.8924 16.6379 18.8924 16.6091C18.8813 16.5912 18.8207 16.5655 18.8076 16.5443C18.8005 16.5083 18.7935 16.4723 18.7864 16.4363C18.7652 16.4291 18.744 16.4219 18.7228 16.4147C18.568 16.1596 18.4751 15.8922 18.3199 15.6371C18.2987 15.63 18.2775 15.6227 18.2563 15.6156C18.1881 15.5283 18.1953 15.4012 18.1291 15.3132C17.9449 15.0683 17.8212 14.7924 17.6626 14.514C17.4713 14.1783 17.2339 13.8251 17.0265 13.4989C16.966 13.4037 16.9662 13.2881 16.8993 13.1965C16.6053 12.7946 16.3869 12.3036 16.0935 11.9006C16.0267 11.8089 16.0268 11.6936 15.9663 11.5983C15.5028 10.8679 15.0606 10.1167 14.6517 9.33045C14.5936 9.21873 14.4642 9.09337 14.3973 8.98488C14.3338 8.88194 14.3296 8.78724 14.27 8.68251C14.2418 8.66091 14.2135 8.63931 14.1852 8.61771C13.9809 8.25864 13.8162 7.91775 13.6127 7.5594C13.4633 7.29631 13.1183 6.93274 13.0826 6.58747C13.0897 6.58747 13.0968 6.58747 13.1038 6.58747C13.3184 6.83927 13.521 7.11587 13.7399 7.36501C13.796 7.42881 13.8168 7.55613 13.8672 7.62419C14.2427 8.13181 14.6489 8.60786 14.991 9.15767C15.107 9.3441 15.3118 9.51348 15.4362 9.69762C15.7411 10.1487 16.064 10.5714 16.3904 10.9935C16.4425 11.061 16.4438 11.1435 16.4964 11.2095C16.6456 11.3969 16.8326 11.5911 16.9629 11.7927C16.9629 11.8143 16.9629 11.8359 16.9629 11.8575C16.9892 11.8913 17.0816 11.9507 17.1113 11.987C17.1427 12.0254 17.1244 12.0725 17.1537 12.1166C17.182 12.131 17.2103 12.1454 17.2385 12.1598C17.7664 12.9444 18.3084 13.738 18.9136 14.4492C18.9278 14.4924 18.9419 14.5356 18.956 14.5788C19.0004 14.6351 19.0881 14.6907 19.1257 14.7516C19.1257 14.7732 19.1257 14.7948 19.1257 14.8164C19.2383 14.9894 19.4409 15.1912 19.5709 15.3564C19.7996 15.6469 19.9583 15.9724 20.1858 16.2635C20.7098 16.9337 21.1874 17.6649 21.7337 18.3153C21.7478 18.3585 21.762 18.4017 21.7761 18.4449C21.8168 18.506 21.9038 18.5573 21.9457 18.6177C21.9528 18.6465 21.9599 18.6753 21.9669 18.7041C22.1162 18.8791 22.6434 19.4883 22.6667 19.7192C22.5361 19.7643 22.3033 19.7425 22.1366 19.7408ZM19.5285 14.0605C19.1689 13.7378 18.8745 13.2736 18.6168 12.851C18.5753 12.783 18.4694 12.7232 18.4259 12.6566C18.0891 12.1408 17.7141 11.6902 17.387 11.1663C17.3718 11.1421 17.318 11.1432 17.3021 11.1231C17.1899 10.9811 17.1219 10.7848 17.0053 10.6479C16.8631 10.481 16.7189 10.3009 16.5812 10.1296C16.5502 10.0909 16.5683 10.044 16.5388 10C16.5034 9.94713 16.4075 9.90205 16.3692 9.84881C16.355 9.80562 16.3409 9.76242 16.3268 9.71922C16.2115 9.58184 16.0643 9.4392 15.9663 9.28726C15.9663 9.26566 15.9663 9.24406 15.9663 9.22246C15.8291 9.04415 15.6471 8.86909 15.521 8.68251C15.4687 8.60497 15.4539 8.51501 15.3938 8.44492C15.2492 8.2762 15.0727 8.08885 14.9485 7.90497C14.8133 7.70469 14.7028 7.51968 14.5669 7.32181C14.5193 7.25244 14.4229 7.19639 14.3761 7.12743C14.3295 7.05894 14.3232 6.97339 14.27 6.91145C14.1246 6.74212 13.9501 6.55706 13.8248 6.37149C13.7724 6.29393 13.7576 6.204 13.6975 6.13391C13.6595 6.08959 13.5831 6.05162 13.5491 6.00432C13.3612 5.74292 13.1954 5.49156 12.9978 5.24838C12.9634 5.20598 12.9696 5.13957 12.9342 5.09719C12.8586 5.00648 12.7454 4.91305 12.6798 4.81641C12.6332 4.74793 12.6269 4.66238 12.5737 4.60043C12.5525 4.59324 12.5313 4.58603 12.5101 4.57883C12.3983 4.43296 12.3185 4.27626 12.2133 4.12527C12.1779 4.09648 12.1426 4.06767 12.1073 4.03888C12.0021 3.86639 11.6785 3.30015 11.4924 3.26134C11.4588 3.4511 11.1569 3.88814 11.0471 4.03888C11.0329 4.08927 11.0188 4.13968 11.0047 4.19006C10.9291 4.31443 10.8256 4.45672 10.7502 4.57883C10.7361 4.62922 10.722 4.67963 10.7078 4.73002C10.5581 4.93773 10.4319 5.19246 10.2838 5.39957C10.2138 5.49732 10.2269 5.62562 10.1565 5.72354C10.1112 5.78659 10.0246 5.87194 9.9869 5.93952C9.39144 7.00832 8.83133 8.08603 8.2058 9.11447C8.14776 9.20987 8.15364 9.29808 8.09978 9.39525C7.84701 9.85127 7.5522 10.3401 7.27284 10.7775C7.23978 10.8293 7.26495 10.9028 7.23043 10.9503C6.96337 11.3178 6.74968 11.7728 6.50951 12.1598C6.07532 12.8594 5.77311 13.6607 5.3009 14.3197C5.18645 14.4794 5.06268 14.9346 4.87683 14.9892C4.87683 14.9748 4.87683 14.9604 4.87683 14.946C4.94112 14.8397 4.91449 14.6906 4.98285 14.5788C4.99699 14.5788 5.01111 14.5788 5.02526 14.5788C5.0394 14.514 5.05352 14.4492 5.06766 14.3844C5.08887 14.37 5.11007 14.3557 5.13127 14.3413C5.13834 14.2909 5.14542 14.2405 5.15248 14.1901C5.508 13.5053 5.78312 12.7714 6.08544 12.0302C6.09869 11.9978 6.15744 11.97 6.17025 11.9438C6.17731 11.8935 6.18439 11.843 6.19146 11.7927C6.23412 11.7104 6.32796 11.5804 6.36108 11.4903C6.36815 11.4399 6.37523 11.3895 6.38229 11.3391C6.45565 11.1967 6.56852 11.0072 6.63673 10.8639C6.64379 10.8063 6.65087 10.7487 6.65794 10.6911C6.67057 10.6651 6.72943 10.6371 6.74275 10.6048C6.86361 10.3113 6.95059 10.0326 7.10321 9.78402C7.17193 9.6721 7.16822 9.49421 7.23043 9.37365C7.48229 8.88551 7.66301 8.28413 7.95136 7.81857C7.95842 7.76819 7.9655 7.71778 7.97256 7.66739C8.01007 7.58162 8.10271 7.44719 8.14219 7.36501C8.20393 7.23646 8.19433 7.1497 8.24821 7.01944C8.34379 6.78832 8.49396 6.50773 8.60867 6.2851C8.67103 6.16408 8.66549 6.06417 8.71469 5.93952C8.75677 5.83285 8.86364 5.69888 8.90552 5.59395C9.08414 5.14633 9.25008 4.72417 9.45681 4.31965C9.52854 4.17929 9.51175 4.04931 9.58403 3.90929C9.98391 3.13471 10.3103 2.25665 10.6866 1.46868C10.9222 0.975421 11.0478 0.445918 11.3227 0C11.3298 0 11.3369 0 11.3439 0C11.3439 0.00719222 11.3439 0.014406 11.3439 0.0215983C11.5714 0.1827 11.7292 0.625616 11.874 0.885529C12.1233 1.33287 12.4364 1.78793 12.701 2.22462C12.708 2.26782 12.7151 2.31102 12.7222 2.35421C12.7796 2.46501 12.9096 2.59104 12.9766 2.69978C13.1061 2.90996 13.1656 3.11616 13.2947 3.32613C13.7254 4.0267 14.1533 4.76631 14.5881 5.46436C14.6432 5.55283 14.6426 5.63091 14.6941 5.72354C14.8204 5.95052 14.9997 6.1927 15.1394 6.41469C15.1675 6.45933 15.15 6.52086 15.1818 6.56587C15.4685 6.97125 15.721 7.44203 15.9875 7.86177C16.0924 8.02704 16.1537 8.18978 16.2632 8.33693C16.2946 8.37911 16.2735 8.44365 16.3056 8.48812C16.5573 8.83661 16.745 9.2211 16.9629 9.61123C16.9919 9.66311 17.0746 9.73449 17.1113 9.78402C17.1442 9.8284 17.1232 9.88503 17.1537 9.93521C17.1749 9.9424 17.1961 9.94961 17.2173 9.9568C17.2856 10.0442 17.2791 10.1704 17.3446 10.2592C17.5273 10.5068 17.6522 10.7765 17.811 11.0583C17.8393 11.0799 17.8676 11.1015 17.8959 11.1231C18.0375 11.3723 18.1347 11.6074 18.2775 11.8575C18.3058 11.879 18.3341 11.9006 18.3623 11.9222C18.4179 12.0098 18.4163 12.0897 18.4683 12.1814C18.4966 12.203 18.5249 12.2246 18.5532 12.2462C18.7284 12.5547 18.8543 12.853 19.0408 13.1533C19.1914 13.3957 19.5114 13.7584 19.5497 14.0821C19.5427 14.0821 19.5356 14.0821 19.5285 14.0821C19.5285 14.0749 19.5285 14.0677 19.5285 14.0605ZM8.29061 5.39957C8.28355 5.44996 8.27647 5.50037 8.26941 5.55076C8.23824 5.61065 8.15245 5.70695 8.12098 5.76674C8.09045 5.82473 8.10903 5.8857 8.07858 5.93952C7.89637 6.26166 7.70902 6.64406 7.54849 6.97624C7.54143 7.02663 7.53434 7.07704 7.52728 7.12743C7.35085 7.46171 7.14242 7.8465 6.97599 8.18575C6.96893 8.23613 6.96185 8.28654 6.95479 8.33693C6.20384 9.78222 5.5774 11.3495 4.81322 12.7862C4.75218 12.9009 4.75716 12.9885 4.7072 13.1102C4.64168 13.2698 4.49593 13.4462 4.43156 13.6069C4.34205 13.8304 4.25476 13.9994 4.15591 14.1901C4.08814 14.3208 4.09624 14.4285 4.02869 14.5572C3.78557 15.0206 3.5406 15.5355 3.30776 16.0043C3.24322 16.1343 3.24772 16.2431 3.18054 16.3715C3.07124 16.5803 2.75509 17.0737 2.73527 17.3218C3.38049 17.3183 4.27866 17.281 4.85563 17.4082C5.02068 17.4446 5.24707 17.3993 5.38572 17.4298C5.626 17.4298 5.86636 17.4298 6.10664 17.4298C6.53133 17.4298 6.96534 17.413 7.33645 17.4946C7.46785 17.5235 7.65554 17.4931 7.76052 17.5162C8.06441 17.5162 8.36839 17.5162 8.67228 17.5162C9.39314 17.5522 10.1142 17.5882 10.835 17.6242C11.2308 17.6242 11.6267 17.6242 12.0224 17.6242C12.2015 17.6638 12.4744 17.6002 12.6798 17.6458C13.7015 17.8726 15.0163 17.5866 16.0087 17.8402C16.0087 17.8546 16.0087 17.869 16.0087 17.8834C15.9946 17.8834 15.9805 17.8834 15.9663 17.8834C15.7313 18.0339 15.3077 17.8778 14.991 17.9482C14.4378 18.0711 13.6597 17.9979 13.1038 18.121C12.8282 18.1281 12.5525 18.1354 12.2769 18.1425C11.2405 18.3748 9.94028 18.1945 8.90552 18.4233C8.6935 18.4233 8.48142 18.4233 8.26941 18.4233C8.1089 18.4589 7.89964 18.4775 7.76052 18.5097C7.56265 18.5097 7.36469 18.5097 7.16682 18.5097C6.80462 18.59 6.42781 18.5375 6.06423 18.6177C5.88757 18.6177 5.71083 18.6177 5.53414 18.6177C5.1892 18.6942 4.77323 18.6456 4.41035 18.7257C4.27607 18.7257 4.14177 18.7257 4.00748 18.7257C3.47816 18.8458 2.75865 18.7805 2.22638 18.8985C2.01436 18.8985 1.80229 18.8985 1.59027 18.8985C1.22508 18.9789 0.408827 19.0583 0.0212036 18.9849C0.00782413 18.947 0.0171113 18.9639 0 18.9417C0.524471 17.9624 1.15687 17.024 1.7387 16.0907C1.7937 16.0025 1.79243 15.9233 1.84471 15.8315C1.91382 15.7102 2.05149 15.5851 2.12036 15.4644C2.3265 15.1031 2.49507 14.757 2.71406 14.406C2.78321 14.2952 2.9039 14.174 2.96851 14.0605C3.39487 13.3113 3.82992 12.5916 4.28313 11.879C4.43976 11.6328 4.53314 11.3744 4.686 11.1231C4.7072 11.1159 4.72841 11.1087 4.74961 11.1015C4.75667 11.0655 4.76375 11.0295 4.77081 10.9935C4.79532 10.9503 4.84117 10.8726 4.87683 10.8207C4.89804 10.8135 4.91924 10.8063 4.94044 10.7991C4.9475 10.7559 4.95459 10.7127 4.96165 10.6695C5.02839 10.5503 5.17366 10.424 5.23729 10.3024C5.24435 10.2592 5.25144 10.216 5.2585 10.1728C5.47611 9.89652 5.63081 9.58721 5.80979 9.26566C5.93884 9.03384 6.14502 8.80371 6.27627 8.57451C6.76158 7.72702 7.25363 6.90689 7.76052 6.09071C7.91531 5.84149 8.20783 5.16827 8.43904 5.054C8.43904 5.08279 8.43904 5.1116 8.43904 5.14039C8.37674 5.2032 8.41465 5.21156 8.37543 5.31317C8.36275 5.346 8.30344 5.37335 8.29061 5.39957Z" fill="#F5F5F5"/>
</svg>
